<svg class="thread-paths" xmlns="http://www.w3.org/2000/svg"
 viewBox="0 0 1060.000000 1484.000000"
 preserveAspectRatio="xMidYMid meet">
<g id="red-threads" transform="translate(0.000000,1484.000000) scale(0.100000,-0.100000)"
fill="#d51515" stroke="none">
<path d="M2370 14836 c0 -5 94 -120 189 -231 93 -108 252 -295 273 -320 151
-182 729 -848 741 -854 4 -1 25 -22 45 -45 20 -22 64 -68 97 -101 32 -33 80
-86 107 -118 26 -32 58 -67 72 -78 14 -11 25 -25 23 -32 -1 -6 9 -12 22 -13
14 -1 30 -10 38 -20 8 -11 13 -13 13 -5 0 14 -76 110 -97 124 -6 4 -28 30 -49
58 -21 28 -50 59 -66 69 -16 9 -39 31 -51 47 -19 26 -150 173 -201 226 -11 11
-47 52 -80 91 -34 39 -68 78 -76 87 -18 19 -124 138 -176 199 -22 25 -60 67
-86 95 -25 27 -57 64 -69 80 -12 17 -48 57 -78 91 -85 93 -171 191 -243 276
-36 42 -81 93 -101 115 -39 42 -39 42 -147 172 -62 75 -100 108 -100 87z"/>
<path d="M8574 14765 c-32 -42 -64 -81 -69 -88 -6 -7 -39 -48 -73 -92 -90
-114 -260 -321 -308 -374 -22 -26 -56 -66 -75 -91 -18 -24 -45 -56 -58 -70
-13 -14 -44 -50 -70 -80 -25 -30 -55 -64 -66 -75 -26 -27 -229 -256 -274 -309
-19 -23 -58 -66 -85 -96 -28 -30 -87 -95 -131 -144 -168 -185 -536 -545 -664
-649 -96 -77 -126 -106 -105 -101 45 11 61 21 118 78 29 30 64 57 77 61 24 8
181 146 256 225 23 25 47 50 53 55 6 6 29 30 53 55 23 24 58 61 77 81 114 118
440 470 541 584 107 120 149 168 194 221 28 32 70 81 95 109 53 60 167 196
195 234 11 14 43 53 71 86 49 58 176 219 284 360 29 39 57 76 63 83 7 9 3 12
-15 12 -18 0 -39 -18 -84 -75z"/>
<path d="M6524 12556 c-14 -13 -26 -23 -124 -101 -41 -32 -79 -65 -83 -72 -4
-7 -13 -13 -19 -13 -13 0 -143 -106 -279 -226 -135 -121 -173 -154 -176 -154
-2 0 -11 -8 -22 -17 -49 -47 -204 -169 -266 -210 -22 -15 -49 -35 -60 -44 -31
-26 -131 -78 -162 -84 -29 -5 -53 -29 -53 -52 0 -18 11 -16 40 7 14 11 30 20
35 20 20 0 165 81 165 92 0 3 17 17 38 29 20 13 62 44 94 69 31 25 79 61 107
80 28 19 51 41 51 47 0 7 13 19 29 28 16 8 35 20 43 27 30 29 177 158 257 227
47 40 88 77 89 82 2 5 23 18 47 29 24 11 45 23 47 28 1 4 39 36 83 70 44 34
86 71 93 82 7 11 21 20 31 20 26 0 32 11 17 31 -8 12 -14 13 -22 5z"/>
<path d="M5157 11603 c-15 -14 -7 -43 12 -43 18 0 57 -54 88 -120 55 -120 71
-160 65 -160 -4 0 -2 -4 3 -8 20 -14 44 -59 76 -143 18 -46 39 -95 48 -109 49
-75 44 -113 -19 -126 -14 -3 -50 -14 -80 -23 -88 -29 -163 -51 -185 -55 -26
-4 -126 -33 -196 -57 -67 -23 -109 -24 -168 -4 -24 9 -60 16 -80 17 -20 0 -40
4 -46 8 -14 10 -156 30 -215 30 -29 0 -50 5 -50 11 0 5 -4 8 -8 5 -4 -2 -41 2
-82 10 -41 8 -87 12 -102 8 -17 -3 -36 1 -53 12 -14 9 -38 18 -53 20 -15 1
-43 6 -62 9 -19 4 -73 8 -120 10 -92 4 -122 -8 -113 -46 6 -21 19 -25 25 -8 8
24 258 12 321 -15 17 -8 82 -19 142 -25 214 -21 281 -30 318 -46 20 -8 60 -16
89 -16 108 -3 148 -26 86 -49 -39 -15 -31 -13 -95 -29 -29 -7 -57 -19 -64 -27
-6 -8 -17 -14 -24 -14 -8 0 -35 -10 -62 -22 -26 -12 -51 -21 -55 -20 -4 1 -34
-12 -65 -30 -58 -32 -175 -91 -216 -109 -12 -5 -65 -32 -117 -60 -52 -28 -122
-65 -155 -82 -33 -17 -67 -36 -75 -43 -8 -6 -26 -15 -40 -19 -14 -4 -44 -20
-68 -36 -24 -16 -40 -25 -37 -19 8 13 5 13 -33 -1 -18 -6 -30 -14 -27 -19 7
-11 -84 -57 -127 -65 -21 -4 -38 -11 -38 -15 0 -10 -130 -75 -147 -73 -7 0
-11 -2 -9 -6 3 -4 -12 -17 -32 -30 -20 -13 -49 -32 -64 -43 -15 -10 -31 -18
-35 -19 -4 0 -28 -25 -53 -54 -50 -59 -56 -63 -64 -37 -5 14 -24 21 -79 29
-39 7 -119 19 -177 29 -58 9 -114 17 -125 18 -43 5 -208 32 -365 61 -47 9
-137 25 -200 36 -150 26 -476 86 -565 104 -38 8 -119 23 -180 34 -214 39 -322
60 -490 96 -93 19 -194 39 -225 45 -48 8 -255 50 -545 111 -100 20 -145 24
-145 10 0 -11 7 -13 135 -41 55 -11 118 -25 140 -30 22 -5 76 -17 120 -26 44
-9 152 -31 240 -49 438 -90 960 -194 1012 -200 12 -2 90 -17 175 -34 84 -17
207 -40 273 -51 697 -122 746 -130 818 -137 31 -3 60 -9 63 -14 3 -5 29 -9 59
-9 30 0 57 -4 60 -10 10 -16 32 -12 57 11 47 42 119 99 126 99 4 0 32 22 62
50 30 27 76 58 103 67 26 10 47 21 47 25 0 5 6 8 14 8 7 0 82 34 165 75 83 41
155 75 159 75 5 0 27 13 48 28 45 33 140 82 158 82 6 0 27 11 46 24 19 13 46
27 59 31 13 4 70 34 127 67 57 32 125 65 152 73 27 8 55 22 62 30 7 8 18 15
25 15 8 0 26 6 42 14 15 8 62 26 103 41 41 15 89 33 107 41 17 8 36 14 42 14
7 0 30 9 53 21 44 23 50 22 153 -14 39 -14 138 -46 220 -73 83 -27 152 -51
155 -54 3 -4 37 -19 75 -34 39 -15 90 -40 114 -54 96 -59 118 -71 161 -92 24
-11 51 -27 60 -34 8 -7 31 -16 51 -20 20 -4 56 -20 79 -37 24 -18 59 -36 78
-41 19 -5 45 -20 59 -34 13 -13 43 -33 66 -43 23 -11 63 -38 89 -60 25 -23 53
-41 61 -41 9 0 19 -9 22 -21 5 -14 10 -18 17 -11 19 19 -52 102 -88 102 -8 0
-14 4 -14 8 0 5 -19 19 -42 32 -24 12 -50 29 -58 36 -17 15 -72 45 -193 107
-88 45 -132 97 -202 237 -21 41 -41 77 -45 80 -4 3 -17 25 -28 50 -11 25 -39
85 -62 134 -43 94 -42 106 8 106 12 0 37 6 55 13 18 8 56 20 86 27 30 7 66 19
80 26 14 8 42 17 61 20 19 3 60 14 90 24 30 10 99 31 153 45 54 15 114 33 133
41 19 8 40 14 47 13 7 -1 23 3 37 8 15 6 44 13 65 14 22 2 42 7 45 11 3 3 14
8 25 10 11 1 22 6 25 10 3 4 23 10 43 12 21 3 41 7 45 10 5 3 179 8 388 11
403 6 598 11 759 20 230 13 417 26 525 35 63 5 160 12 215 15 55 3 165 12 245
20 80 8 240 24 355 35 473 44 945 91 1190 120 365 43 345 39 345 56 0 18 -36
18 -182 0 -62 -8 -140 -17 -173 -20 -33 -3 -130 -14 -215 -25 -85 -11 -207
-25 -270 -31 -63 -6 -187 -17 -275 -25 -88 -9 -167 -17 -175 -19 -8 -3 -62 -8
-120 -11 -58 -4 -107 -9 -110 -10 -3 -2 -46 -6 -95 -10 -50 -3 -101 -8 -115
-10 -14 -3 -54 -7 -90 -10 -36 -3 -112 -10 -170 -15 -58 -6 -172 -15 -255 -20
-82 -6 -233 -17 -335 -25 -276 -22 -727 -37 -1065 -35 -381 3 -355 4 -455 -26
-47 -14 -110 -33 -140 -41 -30 -8 -64 -19 -75 -23 -11 -4 -38 -13 -60 -19 -58
-15 -197 -52 -215 -56 -19 -5 -95 -27 -184 -54 -38 -11 -77 -28 -87 -37 -10
-9 -30 -18 -45 -20 -14 -1 -49 -8 -77 -15 -29 -7 -55 -12 -59 -11 -5 1 -8 -2
-8 -8 0 -31 -30 -1 -57 58 -57 123 -140 317 -148 342 -4 14 -16 41 -26 60 -11
19 -19 38 -19 43 0 4 -14 41 -31 81 -27 61 -37 75 -64 85 -37 13 -39 13 -48 4z
m366 -755 c8 -18 21 -39 30 -47 16 -12 39 -74 43 -112 0 -10 10 -30 21 -45 35
-51 133 -254 122 -254 -18 0 -83 37 -102 58 -10 11 -33 23 -51 26 -18 3 -48
17 -66 31 -19 14 -37 25 -42 25 -4 0 -31 11 -60 24 -29 13 -87 36 -128 51 -41
14 -109 40 -150 55 -41 16 -96 31 -122 35 -57 7 -69 21 -31 36 15 6 35 15 43
19 9 4 52 17 95 29 44 11 121 32 170 47 223 64 211 62 228 22z"/>
<path d="M5083 11567 c-7 -11 17 -28 29 -21 4 3 8 11 8 18 0 15 -28 17 -37 3z"/>
<path d="M5826 10270 c7 -34 26 -72 51 -98 7 -7 13 -19 13 -25 0 -7 12 -30 26
-51 15 -21 61 -107 104 -190 42 -83 89 -171 103 -196 13 -25 24 -48 23 -51 0
-3 9 -28 21 -55 12 -27 40 -110 63 -184 23 -74 52 -166 65 -205 32 -98 55
-180 55 -192 0 -14 -56 -37 -69 -28 -6 3 -11 2 -11 -4 0 -5 -17 -15 -37 -22
-21 -6 -49 -17 -63 -24 -74 -37 -163 -75 -222 -94 -38 -12 -92 -32 -122 -46
-30 -14 -58 -25 -61 -25 -4 0 -21 -6 -38 -14 -18 -8 -63 -29 -102 -47 -81 -37
-362 -154 -420 -175 -22 -8 -52 -21 -67 -29 -14 -8 -35 -15 -47 -15 -11 0 -46
-13 -78 -29 -32 -16 -63 -30 -70 -32 -8 -3 -9 -9 -4 -18 7 -11 13 -11 32 3 13
9 30 16 37 16 16 0 122 41 357 137 88 36 174 70 190 76 57 19 180 71 192 80 7
5 72 31 145 59 73 27 169 63 213 80 44 16 104 38 133 49 29 10 62 25 74 34 46
32 55 16 62 -115 2 -36 8 -85 14 -110 16 -69 26 -284 14 -306 -6 -11 -17 -59
-25 -108 -9 -49 -19 -92 -24 -95 -11 -8 -15 -31 -5 -31 4 0 13 5 20 12 19 19
14 -3 -5 -24 -15 -16 -15 -22 -4 -40 11 -18 11 -23 -3 -34 -9 -6 -20 -31 -25
-55 -4 -24 -13 -43 -19 -42 -6 2 -14 -14 -18 -35 -18 -105 -59 -201 -92 -217
-32 -14 -44 -49 -24 -69 13 -12 14 -19 4 -28 -9 -9 -15 -9 -24 0 -17 17 -26
15 -33 -10 -8 -26 -68 -119 -92 -143 -10 -10 -24 -14 -37 -10 -12 3 -28 7 -36
10 -8 2 -34 12 -58 23 -25 11 -54 17 -70 14 -22 -4 -12 -11 66 -40 50 -20 92
-40 92 -47 0 -6 30 -16 68 -22 59 -11 138 -28 342 -73 30 -7 62 -13 70 -14 8
-1 49 -9 90 -19 195 -43 881 -177 1090 -212 19 -4 87 -15 150 -26 116 -21 148
-26 340 -54 58 -8 197 -28 310 -45 391 -58 764 -103 1165 -140 121 -11 258
-25 305 -30 47 -5 153 -15 235 -20 83 -6 205 -15 273 -20 163 -13 172 -13 172
5 0 8 -3 15 -7 15 -5 0 -71 6 -148 14 -77 8 -214 20 -305 26 -150 10 -267 21
-725 65 -195 19 -234 24 -330 35 -44 6 -96 12 -117 15 -20 2 -47 6 -60 9 -12
3 -51 8 -85 10 -33 3 -72 8 -85 11 -12 3 -120 18 -238 35 -416 57 -674 98
-839 131 -30 6 -63 12 -75 14 -69 9 -506 90 -701 130 -38 8 -115 24 -170 35
-55 11 -129 27 -165 34 -36 8 -101 22 -145 31 -80 17 -121 26 -140 31 -5 1
-50 11 -99 22 -100 21 -108 28 -71 62 14 13 25 28 25 34 0 5 20 35 43 65 47
61 100 147 103 169 2 8 13 30 27 50 48 73 58 93 62 120 5 44 17 86 27 99 5 6
8 17 7 25 -1 7 3 26 9 41 7 15 11 49 11 75 0 26 7 92 16 147 9 55 16 105 17
110 1 35 -15 361 -19 367 -3 7 -13 93 -17 158 -1 23 7 28 120 65 67 22 128 46
135 52 8 7 26 14 40 16 36 7 95 33 103 46 4 6 21 11 37 11 16 0 48 9 70 21 22
11 46 18 52 16 7 -2 19 1 27 8 16 14 104 41 175 54 49 9 70 -3 42 -24 -21 -15
-21 -21 -1 -29 8 -3 12 -2 9 4 -3 5 6 21 20 34 32 29 81 27 105 -4 17 -23 30
-17 30 11 0 43 -127 71 -216 47 -73 -18 -94 -21 -94 -9 0 18 -15 13 -70 -24
-29 -19 -64 -38 -79 -41 -20 -4 -22 -3 -11 5 8 5 11 13 7 17 -8 8 -169 -68
-197 -92 -9 -8 -34 -16 -55 -20 -47 -7 -101 -28 -175 -67 -98 -52 -104 -50
-117 35 -17 105 -46 218 -87 336 -20 57 -34 107 -31 112 3 5 1 11 -5 15 -5 3
-10 15 -10 25 0 10 -6 25 -13 32 -6 7 -20 29 -29 48 -86 181 -154 310 -188
360 -9 14 -30 53 -46 88 -15 34 -32 62 -37 62 -4 0 -5 5 -1 12 4 7 3 8 -4 4
-11 -7 -45 46 -37 58 3 3 2 4 -1 2 -3 -3 -17 7 -31 22 -24 27 -24 27 -17 -8z"/>
<path d="M3492 8718 c-7 -7 -12 -17 -12 -24 0 -22 96 -112 140 -132 83 -36
165 -70 188 -77 12 -3 22 -11 22 -16 0 -5 10 -9 23 -9 12 0 36 -8 52 -18 17
-10 44 -22 60 -26 27 -6 100 -32 165 -58 14 -5 25 -9 25 -8 0 1 17 -5 39 -14
21 -9 51 -16 67 -16 15 0 40 -5 56 -12 15 -6 32 -10 37 -9 6 1 19 -2 30 -7 12
-6 47 -15 78 -22 32 -6 60 -16 64 -21 7 -12 -36 -48 -59 -49 -9 0 -36 -12 -60
-27 -23 -14 -44 -27 -47 -27 -3 0 -9 -4 -15 -8 -23 -19 -90 -61 -100 -62 -6
-1 -26 -11 -45 -22 -19 -11 -61 -36 -92 -54 -32 -19 -58 -38 -58 -42 0 -4 -8
-8 -19 -8 -10 0 -29 -8 -42 -19 -13 -10 -28 -20 -34 -22 -33 -14 -105 -66
-105 -76 0 -7 -12 -19 -28 -27 -15 -8 -36 -23 -46 -35 -11 -12 -28 -21 -39
-21 -11 0 -18 3 -14 6 3 4 0 13 -8 21 -12 11 -35 13 -112 8 -586 -33 -1979
-44 -2613 -19 -58 2 -195 6 -305 10 -110 3 -299 9 -419 13 -231 8 -266 6 -266
-14 0 -12 62 -15 655 -31 121 -3 357 -9 525 -14 387 -11 1881 -5 2185 9 127 6
257 12 290 13 50 3 60 0 63 -15 2 -11 -5 -21 -20 -26 -13 -6 -18 -10 -13 -11
6 0 5 -4 -2 -8 -8 -5 -6 -14 7 -32 20 -25 20 -25 20 0 0 18 10 31 35 45 18 11
64 44 102 73 75 57 199 142 208 142 4 0 38 20 76 45 38 24 69 42 69 39 0 -3 7
1 15 10 8 8 39 29 67 46 29 17 68 42 86 55 18 13 54 32 80 41 26 10 65 30 86
46 47 33 65 35 108 8 41 -24 61 -26 56 -3 -2 10 -20 22 -43 29 -22 7 -32 13
-23 13 9 1 21 7 25 15 9 16 99 66 119 66 20 0 124 53 124 62 0 18 -30 19 -59
2 -17 -10 -31 -22 -31 -26 0 -4 -18 -11 -40 -14 -21 -4 -47 -15 -56 -25 -9
-11 -27 -19 -38 -19 -12 0 -34 -9 -50 -19 -36 -24 -98 -20 -156 9 -23 12 -48
19 -56 16 -7 -3 -16 -1 -19 4 -4 6 -17 10 -29 10 -26 0 -203 52 -251 74 -16 7
-68 26 -115 41 -47 15 -121 42 -165 60 -44 18 -104 42 -133 54 -61 23 -169
113 -174 144 -4 25 -19 32 -36 15z"/>
<path d="M4727 8194 c-11 -12 45 -44 76 -44 15 0 27 -4 27 -10 0 -5 12 -13 28
-16 15 -4 64 -24 108 -45 45 -22 86 -39 93 -39 6 0 11 -4 11 -9 0 -5 15 -12
33 -15 18 -3 81 -31 141 -61 59 -30 114 -55 121 -55 7 0 15 -3 17 -7 7 -16 65
-50 118 -69 42 -15 72 -37 133 -96 43 -42 91 -86 107 -98 15 -11 31 -34 35
-50 7 -31 20 -39 28 -17 7 21 -58 127 -78 127 -7 0 -30 21 -51 46 -40 48 -154
130 -214 153 -19 8 -42 20 -50 27 -8 6 -32 17 -52 22 -20 6 -52 22 -71 36 -19
14 -37 26 -41 26 -4 0 -33 12 -64 26 -31 15 -66 30 -77 34 -11 4 -36 15 -57
24 -20 9 -43 16 -52 16 -9 0 -16 5 -16 10 0 6 -3 9 -7 8 -5 -1 -25 6 -47 15
-21 9 -47 17 -58 17 -10 0 -31 9 -46 19 -30 22 -84 36 -95 25z"/>
<path d="M4577 7542 c-10 -10 -17 -20 -17 -23 0 -13 205 -10 286 4 57 10 75
10 90 0 20 -13 64 -7 64 8 0 5 -13 9 -29 9 -17 0 -32 4 -35 9 -3 5 -23 7 -43
5 -79 -10 -303 -12 -297 -3 9 15 -2 10 -19 -9z"/>
<path d="M4375 7526 c-16 -5 -52 -17 -80 -27 -27 -10 -59 -20 -70 -22 -11 -1
-41 -15 -66 -30 -25 -15 -69 -34 -96 -42 -28 -8 -56 -22 -63 -30 -7 -8 -19
-15 -26 -15 -8 0 -14 -4 -14 -8 0 -10 -85 -52 -105 -52 -16 0 -69 -28 -134
-72 -24 -16 -46 -27 -48 -24 -14 14 -102 -82 -96 -104 7 -26 5 -26 51 20 36
37 183 129 227 142 46 14 136 56 172 80 50 34 135 78 150 78 7 0 32 9 55 19
82 37 212 71 260 69 50 -2 72 7 48 22 -18 11 -125 9 -165 -4z"/>
<path d="M5740 7513 c0 -36 16 -65 24 -43 14 40 10 70 -9 70 -10 0 -15 -10
-15 -27z"/>
<path d="M4788 7443 c-75 -22 -58 -29 73 -27 67 0 114 -3 107 -7 -17 -12 61
-10 87 1 19 8 19 9 -2 9 -13 1 -23 5 -23 10 0 4 -37 11 -82 14 -46 3 -90 7
-98 10 -8 3 -36 -2 -62 -10z"/>
<path d="M5051 7451 c-10 -6 6 -10 47 -13 39 -2 61 1 59 7 -5 13 -88 18 -106
6z"/>
<path d="M5763 7434 c0 -7 4 -14 9 -14 4 0 8 -9 8 -19 0 -11 5 -23 11 -27 6
-3 9 -15 6 -25 -4 -15 0 -19 19 -19 15 0 24 6 24 15 0 8 -4 15 -10 15 -5 0 -9
3 -8 8 3 16 -22 61 -40 71 -14 8 -19 7 -19 -5z"/>
<path d="M5219 7414 c11 -15 18 -30 15 -35 -3 -5 -1 -9 5 -9 5 0 17 -7 26 -16
11 -11 20 -13 26 -7 12 12 44 -1 169 -66 47 -24 104 -54 128 -65 23 -12 44
-28 47 -36 3 -8 26 -28 51 -44 53 -33 173 -170 201 -228 11 -23 24 -37 33 -35
23 4 24 36 2 60 -11 12 -23 32 -26 44 -8 24 -102 127 -140 153 -79 52 -103 70
-121 86 -35 33 -104 74 -133 80 -16 3 -45 21 -65 40 -19 19 -44 34 -54 34 -10
1 -36 9 -58 20 -22 11 -48 19 -59 20 -12 0 -16 5 -12 15 4 11 -2 15 -25 15
-30 0 -30 0 -10 -26z"/>
<path d="M5957 7405 c-53 -60 -91 -95 -102 -95 -7 0 -15 -7 -19 -15 -3 -9 0
-15 8 -15 8 0 16 7 20 15 3 8 11 15 19 15 7 0 26 14 42 30 16 17 34 30 40 30
13 0 45 36 45 50 0 19 -31 10 -53 -15z"/>
<path d="M4582 7395 c-24 -28 -29 -40 -9 -28 6 4 23 9 37 10 77 9 111 15 106
21 -4 3 -27 5 -53 3 -25 -1 -49 2 -53 8 -4 7 -14 2 -28 -14z"/>
<path d="M5115 7370 c3 -5 13 -10 21 -10 8 0 26 -7 39 -16 16 -11 29 -13 41
-6 13 7 6 12 -34 25 -58 19 -76 21 -67 7z"/>
<path d="M5450 7362 c0 -16 13 -21 31 -12 14 8 21 5 32 -10 7 -11 16 -18 18
-15 3 2 34 -2 69 -9 103 -22 165 -24 165 -6 0 11 -17 17 -65 21 -36 3 -93 14
-126 23 -67 17 -124 21 -124 8z"/>
<path d="M4336 7254 c-14 -15 -26 -31 -26 -36 0 -11 79 43 80 55 0 16 -29 6
-54 -19z"/>
<path d="M4313 7192 c-23 -15 -43 -32 -43 -39 0 -7 -9 -17 -21 -23 -11 -6 -33
-31 -48 -54 -15 -24 -49 -63 -76 -86 -28 -23 -70 -60 -94 -81 -24 -21 -48 -36
-54 -32 -5 3 -7 1 -3 -5 3 -6 2 -13 -4 -17 -5 -3 -7 -17 -4 -31 3 -13 2 -24
-4 -24 -5 0 -13 -7 -16 -15 -5 -14 -1 -13 25 2 45 27 70 58 78 95 6 28 11 33
39 36 18 2 32 8 32 13 0 6 5 7 10 4 6 -3 10 -1 10 5 0 16 103 141 173 209 77
77 77 92 0 43z"/>
<path d="M5898 6836 c3 -12 11 -28 18 -37 8 -8 15 -24 17 -35 2 -10 9 -32 16
-49 11 -27 23 -72 38 -148 3 -16 -3 -49 -15 -80 -11 -28 -23 -70 -26 -92 -3
-22 -10 -41 -16 -43 -5 -2 -10 -13 -10 -25 0 -24 -35 -87 -48 -87 -5 0 -15
-18 -22 -39 -13 -39 -53 -91 -70 -91 -6 0 -9 -3 -9 -7 5 -28 -3 -53 -16 -53
-18 0 -20 -16 -3 -26 7 -4 18 2 27 16 9 13 34 43 56 65 66 69 95 105 95 118 0
13 31 78 47 100 13 17 33 89 33 119 0 14 3 28 6 31 23 22 -6 224 -44 309 -22
51 -84 96 -74 54z"/>
<path d="M3890 6789 c-35 -41 -74 -80 -110 -109 -18 -14 -50 -43 -73 -65 -23
-23 -64 -59 -92 -80 -27 -22 -62 -54 -78 -72 -16 -18 -44 -42 -63 -54 -21 -13
-41 -37 -51 -60 -9 -24 -22 -39 -32 -39 -11 0 -28 -20 -45 -50 -15 -27 -38
-58 -52 -69 -14 -11 -27 -28 -28 -37 -4 -24 -96 -132 -133 -155 -39 -24 -69
-64 -79 -105 -7 -26 -6 -28 9 -15 27 22 22 -21 -12 -93 -40 -84 -43 -100 -30
-130 11 -24 13 -24 25 -8 7 9 14 27 14 39 0 12 5 25 10 28 6 3 10 14 10 23 0
28 68 181 102 231 18 25 50 73 72 106 23 34 53 74 69 90 15 17 27 35 27 41 0
19 60 95 70 89 6 -3 10 -2 10 3 0 11 182 196 223 227 15 11 73 64 129 118 57
54 110 103 119 110 17 13 35 67 22 66 -5 0 -19 -14 -33 -30z"/>
<path d="M5690 5991 c25 -15 35 -17 40 -7 3 5 -8 11 -25 13 -22 2 -26 1 -15
-6z"/>
<path d="M5727 5923 c-8 -15 -17 -50 -20 -78 -14 -124 -121 -391 -266 -665 -4
-8 -20 -40 -36 -70 -15 -30 -38 -66 -51 -81 -13 -14 -24 -28 -24 -32 0 -9 -63
-101 -72 -105 -4 -2 -8 -10 -8 -18 0 -8 -9 -23 -21 -35 -14 -14 -19 -28 -15
-45 7 -28 26 -32 26 -6 1 9 14 35 30 57 16 22 37 54 46 70 9 17 33 53 53 80
34 46 161 267 161 279 0 3 23 53 50 111 28 58 50 108 50 111 0 3 11 29 24 58
14 30 28 70 31 90 4 20 11 39 16 42 5 3 9 20 9 39 0 19 5 37 10 40 6 3 10 16
10 29 0 12 4 26 10 32 13 13 22 112 10 119 -5 3 -15 -7 -23 -22z"/>
<path d="M6117 5434 c-7 -8 36 -44 52 -44 11 0 110 -50 186 -94 64 -36 126
-101 112 -116 -10 -10 -8 -10 9 -2 24 13 49 0 49 -25 1 -10 6 -17 12 -16 17 4
56 -65 49 -84 -6 -14 -12 -11 -41 17 -19 18 -32 37 -29 42 3 4 0 8 -6 8 -7 0
-10 6 -7 14 3 8 -1 20 -9 26 -11 10 -14 10 -14 1 0 -7 -5 -9 -10 -6 -10 6 -3
-7 46 -92 11 -18 27 -33 37 -33 9 0 17 -5 17 -11 0 -5 14 -15 30 -20 17 -6 30
-14 30 -18 0 -4 16 -25 35 -47 19 -21 38 -47 41 -57 3 -9 10 -15 15 -12 5 4 9
1 9 -4 0 -6 7 -11 15 -11 28 0 152 -138 196 -219 13 -24 41 -62 61 -85 21 -22
38 -45 38 -49 0 -4 17 -33 38 -64 20 -31 48 -73 62 -94 69 -106 151 -223 214
-307 39 -52 94 -124 121 -162 60 -81 106 -143 143 -189 15 -19 36 -46 47 -61
74 -101 292 -372 374 -466 20 -23 54 -63 76 -89 159 -189 387 -437 534 -579
127 -123 121 -117 202 -191 199 -183 260 -236 314 -280 33 -27 71 -59 85 -71
23 -21 172 -144 195 -162 6 -4 60 -47 120 -95 105 -84 154 -122 365 -288 82
-65 189 -146 279 -214 29 -22 198 -144 279 -202 29 -21 67 -49 83 -61 29 -23
29 -24 29 -3 0 15 -28 42 -97 93 -54 40 -105 78 -113 85 -8 6 -107 83 -220
169 -113 87 -207 161 -210 164 -3 3 -63 51 -135 107 -71 56 -139 110 -150 120
-11 10 -67 57 -125 104 -58 47 -127 107 -155 132 -27 26 -53 47 -57 47 -4 0
-15 8 -25 18 -10 11 -54 50 -98 88 -92 79 -80 68 -182 160 -324 295 -582 546
-688 668 -82 95 -136 156 -160 180 -11 11 -27 30 -35 42 -8 12 -38 48 -67 80
-64 73 -203 241 -240 292 -15 20 -46 56 -68 80 -22 24 -42 48 -44 54 -2 6 -40
57 -85 113 -103 130 -259 343 -409 559 -64 93 -124 177 -131 185 -7 9 -16 28
-20 42 -3 15 -17 34 -31 43 -14 9 -25 21 -25 27 0 11 -75 125 -97 147 -7 7
-13 21 -13 31 0 26 -82 111 -107 111 -25 0 -120 85 -142 127 -9 17 -26 49 -39
73 -13 23 -69 87 -125 141 -55 54 -97 102 -93 106 4 4 15 2 24 -5 9 -7 22 -15
29 -18 6 -3 29 -22 51 -43 24 -23 58 -43 87 -51 81 -23 194 -124 226 -203 7
-18 21 -40 30 -50 9 -10 22 -35 29 -57 7 -22 17 -37 21 -34 15 9 10 51 -7 64
-20 17 -44 75 -44 107 0 32 -27 71 -61 89 -16 8 -29 19 -29 25 0 14 -52 58
-68 59 -23 0 -132 80 -132 96 0 10 -6 13 -18 10 -10 -4 -41 5 -70 19 -29 14
-60 25 -70 25 -10 0 -27 6 -38 14 -10 8 -29 12 -41 9 -15 -3 -25 0 -29 11 -3
9 -17 16 -30 16 -15 0 -24 6 -24 15 0 11 -12 15 -44 15 -25 0 -48 5 -51 10 -7
11 -28 13 -38 4z"/>
<path d="M4844 4982 c4 -15 3 -22 -1 -15 -12 16 -84 22 -108 7 -11 -6 -39 -15
-63 -18 -24 -4 -51 -11 -60 -16 -9 -5 -84 -26 -167 -46 -82 -20 -152 -40 -155
-43 -8 -9 -32 -15 -60 -13 -14 0 -38 -5 -55 -12 -16 -8 -52 -17 -80 -21 -27
-4 -54 -10 -60 -15 -5 -4 -35 -13 -66 -19 -51 -11 -74 -25 -92 -57 -7 -12 183
34 276 67 32 12 73 22 90 24 18 3 84 18 147 36 63 17 142 37 175 44 33 7 94
23 135 34 41 11 85 21 98 21 12 0 22 4 22 9 0 6 12 9 27 8 36 -3 47 37 13 46
-19 5 -21 2 -16 -21z"/>
<path d="M5162 4758 c-5 -7 -13 -23 -16 -36 -4 -12 -11 -20 -16 -17 -13 8 -60
-24 -60 -41 0 -18 40 -17 64 1 10 8 22 13 26 10 9 -6 61 76 54 86 -8 13 -40
11 -52 -3z"/>
<path d="M3735 4711 c-50 -15 -102 -35 -116 -44 -14 -9 -50 -19 -79 -22 -30
-3 -57 -9 -60 -13 -3 -4 -38 -18 -77 -32 -40 -13 -73 -28 -73 -31 0 -10 -41
-23 -62 -20 -10 1 -39 -9 -65 -22 -27 -14 -73 -33 -103 -42 -124 -37 -180 -76
-180 -124 0 -17 -5 -33 -10 -36 -14 -9 -3 -25 17 -25 9 0 13 6 10 14 -7 17 19
42 77 76 24 14 61 38 84 53 36 25 85 44 132 50 8 1 21 8 28 15 7 6 21 12 31
12 19 0 216 65 243 80 29 16 101 39 108 35 4 -3 32 4 63 15 31 11 61 20 67 20
35 0 78 29 73 49 -3 12 -8 20 -12 20 -3 -1 -47 -14 -96 -28z"/>
<path d="M3355 3935 c-3 -30 -3 -60 2 -67 8 -14 9 -19 11 -55 3 -33 18 -28 16
5 0 15 -2 60 -2 100 -2 85 -17 95 -27 17z"/>
<path d="M3291 3662 c-13 -53 -10 -75 10 -55 6 6 9 32 7 59 -3 49 -3 49 -17
-4z"/>
<path d="M3202 3407 c-12 -34 -24 -69 -27 -77 -4 -16 -22 -66 -110 -295 -75
-194 -188 -508 -221 -610 -24 -75 -45 -132 -65 -180 -4 -11 -18 -54 -29 -95
-12 -41 -27 -88 -34 -105 -8 -16 -24 -66 -36 -110 -13 -44 -27 -84 -32 -89 -4
-6 -8 -18 -8 -29 0 -18 -17 -73 -71 -232 -15 -44 -30 -93 -34 -110 -3 -16 -15
-48 -26 -72 -10 -23 -19 -44 -19 -48 0 -5 -122 -331 -186 -495 -39 -101 -89
-222 -109 -267 -8 -17 -15 -34 -15 -38 0 -4 -6 -21 -14 -38 -8 -18 -31 -72
-51 -122 -20 -49 -48 -115 -62 -145 -45 -94 -103 -243 -98 -248 3 -3 12 12 21
34 17 42 41 96 81 184 14 30 32 73 40 95 7 22 20 49 27 60 8 12 19 37 24 56 6
19 34 86 62 149 28 63 55 124 60 135 5 11 43 108 85 215 42 107 80 204 85 215
15 31 57 146 111 305 28 80 53 152 56 160 3 8 72 211 153 450 81 239 164 480
184 535 20 55 52 143 71 195 42 117 130 350 185 490 52 132 55 144 38 168 -13
19 -15 16 -36 -41z"/>
</g>
</svg>
